<svg xmlns="http://www.w3.org/2000/svg" width="134" height="45" viewBox="0 0 134 45">
    <path fill="#FFF" fill-rule="nonzero" d="M16.443 44.163c9.576 0 16.443-6.741 16.443-16.254 0-9.135-6.489-15.876-15.624-15.876-4.536 0-8.379 1.89-10.836 4.851V0H0v28.098c0 9.324 6.867 16.065 16.443 16.065zm-.063-5.607c-5.796 0-9.954-4.347-9.954-10.458 0-6.048 4.158-10.458 9.954-10.458 5.733 0 9.891 4.41 9.891 10.458 0 6.111-4.158 10.458-9.891 10.458zM42.21 8.001c2.394 0 4.095-1.575 4.095-3.78 0-2.268-1.701-3.78-4.095-3.78-2.457 0-4.095 1.512-4.095 3.78 0 2.205 1.638 3.78 4.095 3.78zm3.213 35.595V12.6h-6.426v30.996h6.426zm14.301 0V0h-6.426v43.596h6.426zm22.554.567c9.576 0 16.443-6.741 16.443-16.065V0h-6.426v16.884c-2.457-2.961-6.3-4.851-10.836-4.851-9.135 0-15.624 6.741-15.624 15.876 0 9.513 6.867 16.254 16.443 16.254zm.063-5.607c-5.733 0-9.891-4.347-9.891-10.458 0-6.048 4.158-10.458 9.891-10.458 5.796 0 9.954 4.41 9.954 10.458 0 6.111-4.158 10.458-9.954 10.458zm26.397-30.555c2.394 0 4.095-1.575 4.095-3.78 0-2.268-1.701-3.78-4.095-3.78-2.457 0-4.095 1.512-4.095 3.78 0 2.205 1.638 3.78 4.095 3.78zm3.213 35.595V12.6h-6.426v30.996h6.426zm13.986 0V25.137c0-4.662 2.835-7.119 7.623-7.119V12.6c-8.946 0-14.112 4.41-14.112 11.97v19.026h6.489z"/>
</svg>
