<?xml version="1.0" encoding="UTF-8"?>
<svg width="20px" height="20px" viewBox="0 0 20 20" version="1.1" xmlns="http://www.w3.org/2000/svg" xmlns:xlink="http://www.w3.org/1999/xlink">
    <!-- Generator: Sketch 64 (93537) - https://sketch.com -->
    <title>turkey</title>
    <desc>Created with Sketch.</desc>
    <g id="Page-1" stroke="none" stroke-width="1" fill="none" fill-rule="evenodd">
        <g id="turkey" fill-rule="nonzero">
            <circle id="Oval" fill="#D80027" cx="10" cy="10" r="10"></circle>
            <g id="Group" transform="translate(5.546667, 6.506667)" fill="#F0F0F0">
                <polygon id="Path" transform="translate(7.214115, 3.500553) rotate(19.000000) translate(-7.214115, -3.500553) " points="6.8043099 1.67190104 7.62481771 2.8025651 8.95360677 2.37170573 8.1318099 3.50139323 8.95220052 4.63201823 7.62388021 4.19951823 6.8021224 5.32920573 6.80298177 3.93229167 5.4746224 3.49979167 6.80345052 3.06893229"></polygon>
                <path d="M4.56509115,6.32666667 C3.0043099,6.32666667 1.7389974,5.06135417 1.7389974,3.50057292 C1.7389974,1.93979167 3.0043099,0.674479167 4.56509115,0.674479167 C5.05173177,0.674479167 5.5096224,0.797565104 5.90938802,1.01416667 C5.28223958,0.400807292 4.42454427,0.0222916667 3.47813802,0.0222916667 C1.5571224,0.0222916667 -0.000104166667,1.57955729 -0.000104166667,3.50053385 C-0.000104166667,5.42151042 1.55716146,6.97877604 3.47813802,6.97877604 C4.4246224,6.97877604 5.28227865,6.60022135 5.90938802,5.98690104 C5.5096224,6.20358073 5.05173177,6.32666667 4.56509115,6.32666667 Z" id="Path"></path>
            </g>
        </g>
    </g>
</svg>